REM MD5 84f32fea8a7e700733a2f59b3b44dd25
FILE "Euro Demo 08 (Europe).bin" BINARY
  TRACK 01 MODE2/2352
    INDEX 01 00:00:00
  TRACK 02 AUDIO
    INDEX 00 12:30:28
    INDEX 01 12:32:28
  TRACK 03 AUDIO
    INDEX 00 16:34:53
    INDEX 01 16:36:53
REM LEADOUT 19:32:57
